<svg width="98" height="98" viewBox="0 0 98 98" fill="none" xmlns="http://www.w3.org/2000/svg">
<g filter="url(#filter0_d_328_97)">
<path d="M68.68 31.8817L38.1173 1.32011C36.3582 -0.440037 33.5035 -0.440037 31.7423 1.32011L25.3958 7.66671L33.4467 15.7177C35.3175 15.0855 37.4629 15.5096 38.9543 17.0009C40.4527 18.5019 40.8738 20.6656 40.2263 22.5425L47.9851 30.3017C49.8622 29.6551 52.0281 30.0734 53.5274 31.5752C55.6228 33.6697 55.6228 37.0645 53.5274 39.1605C51.4315 41.2567 48.0368 41.2567 45.9398 39.1605C44.3637 37.5827 43.9743 35.268 44.7722 33.3263L37.5365 26.0905L37.5357 45.1322C38.0602 45.3915 38.5393 45.7341 38.9543 46.1466C41.0496 48.2412 41.0496 51.6363 38.9543 53.7339C36.8584 55.829 33.462 55.829 31.3691 53.7339C29.2737 51.6363 29.2737 48.2415 31.3691 46.1469C31.8712 45.6445 32.468 45.2466 33.1248 44.9763V25.7571C32.467 25.4886 31.8699 25.0905 31.3691 24.5865C29.7815 23.0011 29.3998 20.6716 30.2133 18.7223L22.277 10.7851L1.32071 31.7403C-0.440235 33.5021 -0.440235 36.3571 1.32071 38.1176L31.884 68.6797C33.6435 70.4401 36.4977 70.4401 38.2594 68.6797L68.6797 38.2595C70.4401 36.4985 70.4401 33.6418 68.6797 31.8817" fill="#DE4C36"/>
</g>
<defs>
<filter id="filter0_d_328_97" x="0" y="0" width="98" height="98" filterUnits="userSpaceOnUse" color-interpolation-filters="sRGB">
<feFlood flood-opacity="0" result="BackgroundImageFix"/>
<feColorMatrix in="SourceAlpha" type="matrix" values="0 0 0 0 0 0 0 0 0 0 0 0 0 0 0 0 0 0 127 0" result="hardAlpha"/>
<feOffset dx="22" dy="22"/>
<feGaussianBlur stdDeviation="3"/>
<feComposite in2="hardAlpha" operator="out"/>
<feColorMatrix type="matrix" values="0 0 0 0 0 0 0 0 0 0 0 0 0 0 0 0 0 0 0.63 0"/>
<feBlend mode="normal" in2="BackgroundImageFix" result="effect1_dropShadow_328_97"/>
<feBlend mode="normal" in="SourceGraphic" in2="effect1_dropShadow_328_97" result="shape"/>
</filter>
</defs>
</svg>
