<svg width="98" height="104" viewBox="0 0 98 104" fill="none" xmlns="http://www.w3.org/2000/svg">
<g filter="url(#filter0_d_328_68)">
<path d="M6.36714 68.4969L0 0.712891H70L63.6329 68.4603L34.9421 76" fill="#E44D26"/>
<path d="M34.9998 70.236V6.27673H63.6133L58.153 64.1054" fill="#F16529"/>
<path d="M13.0044 14.5664H35V22.8747H22.613L23.4234 31.3843H35V39.6743H15.3969L13.0044 14.5664ZM15.7828 43.8468H24.581L25.1984 50.4897L35 52.9786V61.6529L17.0176 56.8948" fill="#EBEBEB"/>
<path d="M56.9179 14.5664H34.9609V22.8747H56.1076L56.9179 14.5664ZM55.3165 31.3843H34.9609V39.6926H45.7658L44.7432 50.4897L34.9609 52.9786V61.6163L52.9047 56.8948" fill="white"/>
</g>
<defs>
<filter id="filter0_d_328_68" x="0" y="0.712891" width="98" height="103.287" filterUnits="userSpaceOnUse" color-interpolation-filters="sRGB">
<feFlood flood-opacity="0" result="BackgroundImageFix"/>
<feColorMatrix in="SourceAlpha" type="matrix" values="0 0 0 0 0 0 0 0 0 0 0 0 0 0 0 0 0 0 127 0" result="hardAlpha"/>
<feOffset dx="22" dy="22"/>
<feGaussianBlur stdDeviation="3"/>
<feComposite in2="hardAlpha" operator="out"/>
<feColorMatrix type="matrix" values="0 0 0 0 0 0 0 0 0 0 0 0 0 0 0 0 0 0 0.63 0"/>
<feBlend mode="normal" in2="BackgroundImageFix" result="effect1_dropShadow_328_68"/>
<feBlend mode="normal" in="SourceGraphic" in2="effect1_dropShadow_328_68" result="shape"/>
</filter>
</defs>
</svg>
