<svg width="104" height="95" viewBox="0 0 104 95" fill="none" xmlns="http://www.w3.org/2000/svg">
<g filter="url(#filter0_d_328_80)">
<path d="M38.0003 41.1713C41.6027 41.1713 44.523 38.4083 44.523 35C44.523 31.5916 41.6027 28.8286 38.0003 28.8286C34.3979 28.8286 31.4775 31.5916 31.4775 35C31.4775 38.4083 34.3979 41.1713 38.0003 41.1713Z" fill="#61DAFB"/>
<path d="M38 47.6437C57.33 47.6437 73 41.9829 73 35C73 28.017 57.33 22.3562 38 22.3562C18.67 22.3562 3 28.017 3 35C3 41.9829 18.67 47.6437 38 47.6437Z" stroke="#61DAFB" stroke-width="5"/>
<path d="M26.4265 41.3219C36.0915 57.1604 49.108 67.1696 55.4997 63.6781C61.8915 60.1866 59.238 44.5166 49.573 28.6781C39.908 12.8396 26.8915 2.8304 20.4997 6.32188C14.108 9.81336 16.7615 25.4834 26.4265 41.3219Z" stroke="#61DAFB" stroke-width="5"/>
<path d="M26.4267 28.6781C16.7618 44.5166 14.1083 60.1867 20.5 63.6781C26.8917 67.1696 39.9083 57.1604 49.5732 41.3219C59.2382 25.4834 61.8917 9.8134 55.5 6.32192C49.1083 2.83043 36.0917 12.8397 26.4267 28.6781Z" stroke="#61DAFB" stroke-width="5"/>
</g>
<defs>
<filter id="filter0_d_328_80" x="0.5" y="3.17981" width="103" height="91.6404" filterUnits="userSpaceOnUse" color-interpolation-filters="sRGB">
<feFlood flood-opacity="0" result="BackgroundImageFix"/>
<feColorMatrix in="SourceAlpha" type="matrix" values="0 0 0 0 0 0 0 0 0 0 0 0 0 0 0 0 0 0 127 0" result="hardAlpha"/>
<feOffset dx="22" dy="22"/>
<feGaussianBlur stdDeviation="3"/>
<feComposite in2="hardAlpha" operator="out"/>
<feColorMatrix type="matrix" values="0 0 0 0 0 0 0 0 0 0 0 0 0 0 0 0 0 0 0.63 0"/>
<feBlend mode="normal" in2="BackgroundImageFix" result="effect1_dropShadow_328_80"/>
<feBlend mode="normal" in="SourceGraphic" in2="effect1_dropShadow_328_80" result="shape"/>
</filter>
</defs>
</svg>
