<svg width="93" height="101" viewBox="0 0 93 101" fill="none" xmlns="http://www.w3.org/2000/svg">
<path d="M92.5731 0.848389L84.1609 90.1483L46.3477 100.082L8.63865 90.1623L0.235352 0.848389H92.5731Z" fill="#264DE4"/>
<path d="M76.9592 84.462L84.148 8.15112H46.4043V92.4891L76.9592 84.462Z" fill="#2965F1"/>
<path d="M19.4995 41.2764L20.5356 52.2302H46.404V41.2764H19.4995Z" fill="#EBEBEB"/>
<path d="M46.4043 19.105H46.3643H17.418L18.4688 30.0591H46.4043V19.105Z" fill="#EBEBEB"/>
<path d="M46.4047 81.1214V69.7247L46.354 69.7375L33.4799 66.4433L32.6569 57.707H26.4011H21.0527L22.6722 74.9064L46.3515 81.1354L46.4047 81.1214Z" fill="#EBEBEB"/>
<path d="M60.5988 52.23L59.257 66.4365L46.3643 69.734V81.1302L70.0623 74.9065L70.2362 73.0558L72.9526 44.2176L73.2347 41.2761L75.3215 19.105H46.3643V30.0591H62.6531L61.6012 41.2761H46.3643V52.23H60.5988Z" fill="white"/>
</svg>
