<svg width="93" height="94" viewBox="0 0 93 94" fill="none" xmlns="http://www.w3.org/2000/svg">
<path d="M91.1507 42.9752L50.8079 2.66573C48.486 0.34417 44.7178 0.34417 42.393 2.66573L34.0157 11.0366L44.6428 21.6555C47.1123 20.8217 49.9442 21.3811 51.9128 23.3481C53.8907 25.3278 54.4466 28.1817 53.5919 30.6572L63.8335 40.8913C66.3113 40.0383 69.1703 40.5901 71.1493 42.5709C73.9152 45.3335 73.9152 49.8111 71.1493 52.5756C68.3828 55.3404 63.9017 55.3404 61.1337 52.5756C59.0532 50.4945 58.5392 47.4416 59.5925 44.8805L50.0413 35.3368L50.0402 60.452C50.7326 60.7941 51.365 61.2459 51.9128 61.79C54.6786 64.5527 54.6786 69.0306 51.9128 71.7972C49.1462 74.5606 44.663 74.5606 41.9004 71.7972C39.1345 69.0306 39.1345 64.553 41.9004 61.7904C42.5632 61.1278 43.3509 60.603 44.2179 60.2464V34.8971C43.3496 34.5429 42.5615 34.0179 41.9004 33.3531C39.8047 31.262 39.3009 28.1896 40.3747 25.6184L29.8988 15.1496L2.2365 42.7887C-0.0879465 45.1124 -0.0879465 48.8781 2.2365 51.2L42.58 91.5102C44.9026 93.8321 48.6701 93.8321 50.9956 91.5102L91.1504 51.3872C93.4741 49.0645 93.4744 45.2967 91.1507 42.9752Z" fill="#DE4C36"/>
</svg>
