<svg width="94" height="93" viewBox="0 0 94 93" fill="none" xmlns="http://www.w3.org/2000/svg">
<path d="M93.2577 0.0649414H0.919922V92.3298H93.2577V0.0649414Z" fill="#F7DF1E"/>
<path d="M62.9473 72.1472C64.8072 75.1816 67.2271 77.4121 71.5068 77.4121C75.1022 77.4121 77.3989 75.6166 77.3989 73.1357C77.3989 70.1627 75.0391 69.1097 71.0818 67.3801L68.9126 66.4502C62.6512 63.7847 58.4916 60.4456 58.4916 53.3866C58.4916 46.8842 63.45 41.9341 71.1991 41.9341C76.7159 41.9341 80.682 43.8526 83.5401 48.8759L76.7833 53.2109C75.2956 50.5455 73.6907 49.4954 71.1991 49.4954C68.6576 49.4954 67.0468 51.1064 67.0468 53.2109C67.0468 55.8119 68.659 56.8649 72.3819 58.4759L74.5511 59.4044C81.9234 62.5633 86.086 65.7838 86.086 73.0244C86.086 80.8303 79.9492 85.1067 71.7076 85.1067C63.6493 85.1067 58.4432 81.2697 55.8959 76.2405L62.9473 72.1472ZM32.2955 72.8985C33.6586 75.3149 34.8986 77.3579 37.8798 77.3579C40.7305 77.3579 42.5289 76.2434 42.5289 71.9099V42.4291H51.2057V72.0271C51.2057 81.0046 45.9381 85.0906 38.2491 85.0906C31.3018 85.0906 27.2785 81.4981 25.2324 77.1712L32.2955 72.8985Z" fill="black"/>
</svg>
