<svg width="99" height="93" viewBox="0 0 99 93" fill="none" xmlns="http://www.w3.org/2000/svg">
<path d="M49.4045 54.3317C54.1565 54.3317 58.0087 50.6898 58.0087 46.1974C58.0087 41.705 54.1565 38.0631 49.4045 38.0631C44.6525 38.0631 40.8003 41.705 40.8003 46.1974C40.8003 50.6898 44.6525 54.3317 49.4045 54.3317Z" fill="#61DAFB"/>
<path d="M49.4042 62.8628C74.9026 62.8628 95.5731 55.4015 95.5731 46.1975C95.5731 36.9934 74.9026 29.5321 49.4042 29.5321C23.9059 29.5321 3.23535 36.9934 3.23535 46.1975C3.23535 55.4015 23.9059 62.8628 49.4042 62.8628Z" stroke="#61DAFB" stroke-width="5"/>
<path d="M34.1381 54.53C46.8873 75.4063 64.0575 88.5991 72.4889 83.9971C80.9203 79.3951 77.4201 58.7409 64.6709 37.8647C51.9217 16.9885 34.7514 3.79561 26.32 8.39762C17.8886 12.9996 21.3889 33.6538 34.1381 54.53Z" stroke="#61DAFB" stroke-width="5"/>
<path d="M34.1381 37.8646C21.3889 58.7408 17.8887 79.395 26.3201 83.997C34.7515 88.599 51.9217 75.4062 64.6709 54.53C77.4201 33.6537 80.9204 12.9996 72.489 8.39754C64.0576 3.79553 46.8873 16.9884 34.1381 37.8646Z" stroke="#61DAFB" stroke-width="5"/>
</svg>
